<svg xmlns="http://www.w3.org/2000/svg" viewBox="0 0 274.84 271.84"><defs><style>.cls-1{fill:#fbcdc2;}.cls-2{fill:#f15639;}</style></defs><title>Asset 6</title><g id="Layer_2" data-name="Layer 2"><g id="Layer_1-2" data-name="Layer 1"><path class="cls-1" d="M174.17,242.32c-22.69,18-40.28,31.91-62.59,29.18C78,267.38,49.41,227.33,53.7,198.56c2.23-15,12.44-20.65,9.41-32.94-3.88-15.71-22.71-15.28-35.3-31.06-18.15-22.75-14.46-68,5.65-81.41C51.22,41.33,66.78,64.39,117.7,67.26c27.6,1.56,30.1-4.81,89.41-8.94,55.35-3.85,61.34,1.14,64,4.71,12.25,16.4-7.91,53.45-28.24,90.82a358.74,358.74,0,0,1-19.29,31.53C211.33,203.25,196.88,224.32,174.17,242.32Z"/><path class="cls-2" d="M49.93,250.32C41.54,247.59,5.48,235.85.52,212.21c-5.48-26.15,33.76-35,52.71-85.65,13.75-36.75-.62-49,16-78.59C83.1,23.24,114-5.51,137.46.91,168,9.27,157.69,69.45,205.7,97.85c16.53,9.79,23.65,6.14,35.76,17.88,21.69,21,31.63,64.54,14.59,84.24-24,27.78-82.39-14.08-123.29,20.71-13.78,11.71-17.88,25.57-37.65,32C76.11,258.85,58.35,253.07,49.93,250.32Z"/><circle class="cls-1" cx="76.52" cy="52.44" r="16.24"/></g></g></svg>